<svg xmlns="http://www.w3.org/2000/svg" viewBox="0 0 40 60"><defs><style>.cls-1{font-size:7px;font-family:Graphik-Semibold, Graphik;font-weight:600;}.cls-2{letter-spacing:-0.07em;}</style></defs><g id="Vacant"><path d="M14.79,29.62C8.58,29.62,3.26,34.05,3.26,40v3.22H36.74V40c0-6-5.32-10.4-11.53-10.4h0a.88.88,0,0,1-.55-1.56c6.5-5.19,3.3-17-4.66-17-6.23,0-10,7.59-7.22,13.65,1.38,3,2.89,3.05,2.89,4A.87.87,0,0,1,14.79,29.62Zm-2-1.64c-5.9-7-1.44-18.67,7.23-18.67S33.13,21,27.23,28c6.16.81,11.27,5.76,11.27,12v4.1a.88.88,0,0,1-.88.88H2.38a.88.88,0,0,1-.88-.88V40C1.5,33.74,6.61,28.79,12.77,28Z"/><text class="cls-1" transform="translate(0.58 54.7)">SE<tspan class="cls-2" x="8.64" y="0">A</tspan><tspan x="13.2" y="0">T OPEN</tspan></text></g></svg>